<?xml version="1.0" standalone="no"?>
<!DOCTYPE svg PUBLIC "-//W3C//DTD SVG 20010904//EN"
 "http://www.w3.org/TR/2001/REC-SVG-20010904/DTD/svg10.dtd">
<svg version="1.0" xmlns="http://www.w3.org/2000/svg"
 width="275.000000pt" height="275.000000pt" viewBox="0 0 275.000000 275.000000"
 preserveAspectRatio="xMidYMid meet">
<metadata>
Created by potrace 1.11, written by Peter Selinger 2001-2013
</metadata>
<g transform="translate(0.000000,275.000000) scale(0.100000,-0.100000)"
fill="#000000" stroke="none">
<path d="M889 2733 c-16 -6 -38 -27 -49 -45 -19 -31 -20 -46 -18 -263 3 -212
5 -232 23 -257 11 -15 27 -30 35 -35 8 -4 228 -8 488 -8 468 -2 474 -2 505 19
18 12 37 35 42 52 16 49 12 457 -5 488 -32 62 -21 60 -529 61 -341 0 -471 -3
-492 -12z m975 -48 l26 -24 0 -223 c0 -244 -3 -258 -57 -275 -34 -10 -899 -10
-931 1 -41 14 -46 39 -47 271 l-1 220 27 28 27 27 465 0 464 0 27 -25z"/>
<path d="M1085 2535 c-115 -50 -132 -193 -31 -270 58 -44 162 -33 206 21 44
55 52 117 24 177 -32 68 -129 103 -199 72z m119 -37 c76 -41 84 -144 15 -203
-87 -73 -223 18 -195 130 8 31 60 83 89 87 29 5 65 0 91 -14z"/>
<path d="M1073 2466 c-30 -28 -36 -39 -35 -71 6 -148 212 -144 212 4 0 47 -45
91 -98 97 -37 3 -47 -1 -79 -30z"/>
<path d="M1534 2531 c-114 -53 -117 -224 -4 -278 71 -34 157 -13 201 49 32 44
33 134 3 174 -50 68 -127 89 -200 55z m123 -33 c43 -20 75 -75 68 -116 -7 -43
-40 -91 -72 -103 -116 -44 -219 80 -150 182 23 34 76 60 109 53 10 -1 30 -9
45 -16z"/>
<path d="M1549 2484 c-53 -27 -67 -120 -25 -162 51 -51 133 -43 169 17 21 36
21 63 2 101 -26 50 -95 71 -146 44z"/>
<path d="M1820 2445 c-15 -19 -1 -45 25 -45 17 0 22 5 20 27 -1 29 -27 40 -45
18z"/>
<path d="M1813 2358 c5 -31 52 -34 52 -3 0 14 -8 21 -28 23 -23 3 -27 0 -24
-20z"/>
<path d="M725 2516 c-32 -14 -84 -69 -86 -89 0 -7 -2 -21 -4 -32 -7 -34 13
-90 43 -118 34 -32 91 -55 101 -39 5 8 7 231 2 280 -1 15 -18 15 -56 -2z"/>
<path d="M1967 2523 c-3 -4 -5 -70 -5 -146 -1 -156 2 -161 65 -130 77 37 107
138 63 210 -24 40 -111 87 -123 66z"/>
<path d="M685 2065 c-45 -16 -85 -59 -85 -91 0 -17 -12 -25 -66 -43 -139 -46
-235 -145 -273 -285 -6 -22 -10 -173 -11 -368 l-1 -331 -24 -29 c-30 -36 -31
-43 -5 -100 18 -42 19 -51 7 -120 -7 -43 -9 -88 -5 -105 26 -100 166 -87 180
18 7 46 18 52 45 24 29 -29 68 -32 101 -9 29 20 29 62 -2 123 -24 47 -24 48
-6 76 21 33 17 71 -11 101 -19 20 -19 34 -17 323 l3 303 33 29 c65 58 62 77
62 -423 0 -426 1 -455 19 -484 20 -32 67 -60 123 -71 18 -3 35 -10 38 -14 4
-6 5 -232 1 -301 -1 -11 -11 -16 -33 -17 -18 0 -41 -2 -50 -4 -26 -5 -78 -49
-94 -79 -15 -29 -23 -156 -10 -176 4 -7 70 -11 209 -12 181 0 208 2 262 21
l61 21 -3 70 c-1 39 -7 84 -12 102 -8 23 -16 293 -12 372 1 7 86 10 264 10
l262 -1 3 -179 c2 -124 -1 -183 -9 -192 -7 -8 -14 -51 -16 -97 l-5 -82 59 -22
c54 -21 75 -23 265 -23 234 0 218 -7 218 92 0 115 -56 175 -168 180 l-32 1 2
161 3 160 38 8 c52 11 98 35 124 67 22 26 22 26 23 484 l0 458 23 -6 c30 -9
67 -51 68 -78 1 -12 2 -148 3 -301 1 -275 1 -279 -21 -309 -27 -37 -29 -59 -7
-97 16 -26 16 -30 -4 -71 -36 -76 -37 -94 -6 -118 35 -28 66 -27 102 4 34 28
37 26 47 -27 12 -63 67 -96 127 -76 44 15 62 53 54 112 -18 136 -18 143 -2
174 22 43 20 77 -6 102 -22 20 -22 23 -24 363 -1 323 -2 345 -22 401 -47 129
-145 219 -279 255 -34 9 -43 17 -48 40 -8 36 -52 79 -95 91 -20 6 -293 10
-679 9 -530 0 -653 -3 -686 -14z m1276 -84 c28 -29 29 -32 29 -135 l0 -106
-612 2 -613 3 -1 95 c-1 106 6 129 44 153 24 15 82 16 575 17 l549 0 29 -29z
m-1371 -170 l0 -89 -34 -12 c-44 -14 -102 -78 -115 -127 -7 -23 -11 -152 -11
-320 l0 -282 -22 -3 c-13 -2 -43 -2 -68 0 l-46 4 2 311 c1 327 5 368 47 437
45 74 96 116 182 152 65 27 65 28 65 -71z m1653 60 c79 -37 136 -92 173 -167
l29 -59 3 -332 3 -333 -65 0 c-36 0 -67 3 -67 8 -1 4 -2 135 -3 292 -2 244 -5
291 -20 325 -23 53 -43 74 -96 99 l-45 21 1 60 c4 136 -4 128 87 86z m-253
-422 c0 -73 -2 -80 -17 -74 -69 27 -125 10 -178 -53 -46 -55 -57 -57 -112 -15
-121 93 -235 91 -318 -6 l-21 -23 2 123 c1 68 2 125 3 127 0 1 145 2 321 2
l320 0 0 -81z m-22 -142 c17 -16 22 -31 22 -74 l0 -53 -310 0 c-248 0 -310 3
-310 13 0 7 12 32 27 54 58 90 136 96 248 19 37 -25 76 -46 87 -46 30 0 71 25
101 61 50 60 88 68 135 26z m22 -447 c0 -107 -1 -111 -29 -142 l-29 -33 -320
0 c-309 0 -320 0 -294 17 108 71 63 245 -66 253 -122 9 -195 -117 -127 -218
14 -20 30 -37 35 -37 6 0 10 -3 10 -8 0 -4 -36 -8 -80 -8 -44 0 -80 3 -80 7 0
3 11 12 25 19 14 7 32 32 41 56 50 130 -83 240 -204 168 -36 -21 -72 -85 -66
-117 12 -65 18 -79 50 -107 38 -33 26 -40 -29 -17 -56 24 -62 38 -63 163 l-1
114 613 0 614 0 0 -110z m-969 33 c46 -42 44 -109 -2 -152 -37 -34 -46 -27
-44 34 2 58 -12 82 -40 71 -11 -4 -15 -21 -15 -66 0 -70 -13 -78 -54 -29 -86
102 57 233 155 142z m268 21 c2 -2 -15 -22 -38 -45 -44 -44 -49 -60 -27 -78
12 -10 23 -4 61 34 26 25 49 44 51 42 11 -11 10 -76 -2 -99 -16 -30 -61 -58
-94 -58 -31 0 -75 25 -94 54 -37 57 -5 136 62 156 24 7 70 3 81 -6z m-769
-194 c25 -49 25 -57 -1 -71 -19 -9 -20 -8 -14 10 4 13 -2 31 -17 51 -19 26
-20 32 -8 40 8 5 16 10 17 10 2 0 12 -18 23 -40z m1760 24 c0 -3 -10 -18 -21
-34 -13 -17 -20 -37 -16 -49 6 -23 5 -24 -17 -15 -22 8 -20 42 4 81 13 22 25
31 35 27 8 -4 15 -8 15 -10z m-1958 -3 c3 -1 -1 -31 -9 -67 -15 -64 -15 -66 8
-90 l22 -24 -30 0 c-47 0 -67 29 -59 87 13 97 16 103 39 99 12 -3 25 -5 29 -5z
m139 -32 c19 -23 24 -37 18 -44 -7 -7 -14 -4 -20 8 -6 9 -22 17 -36 17 -31 0
-52 -25 -53 -62 0 -19 -5 -28 -16 -28 -14 0 -15 8 -9 58 10 78 18 90 57 87 22
-2 40 -13 59 -36z m1923 30 c8 -10 25 -122 20 -130 -10 -18 -22 -9 -28 23 -11
58 -50 76 -88 41 -10 -9 -21 -13 -24 -10 -6 6 32 66 49 78 9 6 65 4 71 -2z
m97 -8 c0 -9 4 -41 9 -71 10 -70 -6 -100 -52 -100 -30 0 -31 0 -13 20 14 16
16 29 11 72 -4 29 -9 62 -12 73 -4 17 0 20 26 21 21 1 30 -3 31 -15z m-1632
-301 c1 -149 0 -161 -16 -158 -16 3 -18 19 -19 158 0 143 5 178 26 165 4 -2 8
-77 9 -165z m219 1 c2 -151 1 -162 -15 -159 -19 4 -22 32 -9 80 5 16 5 36 1
45 -9 19 -14 182 -7 196 2 4 9 6 15 4 8 -2 13 -54 15 -166z m640 4 c-2 -128
-5 -165 -15 -165 -16 0 -15 -12 -17 155 -1 77 2 148 6 158 22 44 28 10 26
-148z m222 -2 c0 -138 -2 -163 -15 -163 -17 0 -17 -6 -17 165 0 168 0 162 17
162 13 0 15 -25 15 -164z m-910 -203 c0 -4 -7 -13 -15 -20 -8 -7 -15 -21 -15
-31 0 -21 12 -20 -203 -22 -77 -1 -141 1 -143 4 -7 12 29 51 60 65 34 15 316
19 316 4z m1023 -4 c36 -14 77 -65 55 -67 -7 0 -84 -1 -172 -2 l-158 -2 -19
37 c-10 21 -19 40 -19 43 0 12 281 5 313 -9z m-961 -13 c21 -25 19 -53 -6 -63
-65 -24 -67 -24 -60 7 7 28 34 72 45 73 3 0 13 -8 21 -17z m621 -1 c20 -22 38
-70 29 -76 -4 -2 -26 4 -49 13 l-41 16 13 33 c16 36 25 39 48 14z m-729 -84
c-3 -4 -83 -8 -177 -8 -95 0 -167 4 -160 8 16 10 343 10 337 0z m1136 0 c0 -4
-76 -8 -170 -8 -93 0 -170 4 -170 8 0 4 77 8 170 8 94 0 170 -3 170 -8z"/>
<path d="M794 1795 c0 -21 5 -25 28 -25 23 0 28 4 28 25 0 21 -5 25 -28 25
-23 0 -28 -4 -28 -25z"/>
<path d="M878 1814 c-14 -13 6 -44 28 -44 19 0 24 5 24 25 0 20 -5 25 -23 25
-13 0 -26 -3 -29 -6z"/>
<path d="M960 1795 c0 -20 5 -25 25 -25 20 0 25 5 25 25 0 20 -5 25 -25 25
-20 0 -25 -5 -25 -25z"/>
<path d="M1040 1795 c0 -20 5 -25 25 -25 20 0 25 5 25 25 0 20 -5 25 -25 25
-20 0 -25 -5 -25 -25z"/>
<path d="M1537 919 c-13 -8 -15 -14 -7 -30 10 -18 23 -19 185 -19 161 0 175 1
184 19 8 14 7 22 -3 30 -16 14 -334 14 -359 0z"/>
<path d="M1532 838 c-5 -5 -7 -18 -5 -29 5 -18 16 -19 184 -19 165 0 179 1
188 19 8 13 7 22 -2 28 -16 13 -353 13 -365 1z"/>
<path d="M1531 751 c-17 -32 -2 -41 73 -41 77 0 101 11 86 40 -13 24 -147 25
-159 1z"/>
</g>
</svg>
